# xmcd CD database file
#
# Track frame offsets:
#	150
#	19064
#	34926
#	60071
#	75289
#	91614
#	103015
#	117178
#	128989
#	147269
#	175494
#	182155
#	197002
#	209539
#	234408
#	248972
#
# Disc length: 3523 seconds
#
# Revision: 0
# Processed by: cddbd v1.5.1PL2 Copyright (c) Steve Scherf et al.
# Submitted via: CDex 1.51
#
DISCID=d00dc110
DTITLE=Skeleton Crew - The Country Of Blinds CD1
DYEAR=2005
DGENRE=avant-rock
TTITLE0=The Country Of Blinds
TTITLE1=The Border
TTITLE2=The Hand That Bites
TTITLE3=Dead Sheep
TTITLE4=Bingo
TTITLE5=Man Or Monkey
TTITLE6=Foot In Hole
TTITLE7=Hot Field
TTITLE8=The Birds Of Japan
TTITLE9=You May Find A Bed
TTITLE10=Sparrow Song
TTITLE11=Safety In Numbers
TTITLE12=Howdywhoola Too
TTITLE13=Second Rate
TTITLE14=New Orleans Stomp
TTITLE15=Hasta La Victoria
EXTD=YEAR: 2005
EXTT0=
EXTT1=
EXTT2=
EXTT3=
EXTT4=
EXTT5=
EXTT6=
EXTT7=
EXTT8=
EXTT9=
EXTT10=
EXTT11=
EXTT12=
EXTT13=
EXTT14=
EXTT15=
PLAYORDER=
